<svg width="2235" height="398" viewBox="0 0 2235 398" fill="none" xmlns="http://www.w3.org/2000/svg">
<path d="M559.957 135.479C554.165 135.479 549.178 133.474 544.986 129.448C540.992 125.232 539 120.214 539 114.381C539 108.556 540.992 103.528 544.986 99.3025C549.178 95.2872 554.165 93.2823 559.957 93.2823H703.675C709.459 93.2823 714.45 95.2872 718.642 99.3025C722.632 103.528 724.633 108.556 724.633 114.381C724.633 120.214 722.632 125.232 718.642 129.448C714.45 133.474 709.459 135.479 703.675 135.479H652.776V283.186C652.776 289.018 650.777 293.941 646.786 297.958C642.593 302.177 637.602 304.283 631.814 304.283C626.025 304.283 621.134 302.177 617.143 297.958C612.951 293.941 610.857 289.018 610.857 283.186V135.479H559.957Z" fill="#369643"/>
<path d="M836.017 219.886L807.272 161.402L778.231 219.886H836.017ZM909.667 273.541C912.259 278.768 912.664 284.195 910.871 289.822C909.071 295.245 905.574 299.264 900.385 301.874C897.395 303.49 894.298 304.283 891.106 304.283C882.32 304.283 876.032 300.371 872.244 292.535L856.975 262.086H757.269L742.002 292.535C739.406 297.759 735.415 301.269 730.026 303.082C724.435 304.89 719.046 304.482 713.858 301.874C708.666 299.264 705.172 295.245 703.379 289.822C701.581 284.195 701.979 278.768 704.575 273.541L788.409 104.73C792.001 97.7031 798.291 94.1802 807.272 94.1802C816.052 94.1802 822.243 97.7031 825.835 104.73L909.667 273.541Z" fill="#369643"/>
<path d="M1079.73 97.1967C1084.32 100.616 1087.11 105.239 1088.12 111.065C1088.91 116.897 1087.62 122.115 1084.22 126.738L1010.57 229.831V283.186C1010.57 289.018 1008.47 293.941 1004.28 297.958C1000.29 302.177 995.397 304.283 989.611 304.283C983.819 304.283 978.831 302.177 974.641 297.958C970.645 293.941 968.654 289.018 968.654 283.186V229.831L894.698 126.738C891.299 122.115 890.102 116.897 891.107 111.065C891.902 105.239 894.698 100.616 899.488 97.1967C904.077 93.7809 909.266 92.5731 915.059 93.582C920.64 94.5845 925.136 97.4021 928.531 102.017L989.611 186.724L1050.39 102.017C1053.78 97.4021 1058.27 94.5845 1063.86 93.582C1069.65 92.5731 1074.94 93.7809 1079.73 97.1967Z" fill="#369643"/>
<path d="M1266.86 105.033C1269.45 99.8128 1273.45 96.2961 1278.83 94.4835C1284.42 92.4787 1289.81 92.7784 1295 95.388C1300.19 98.0002 1303.69 102.121 1305.49 107.744C1307.28 113.171 1306.88 118.502 1304.28 123.721L1220.45 292.535C1216.66 300.371 1210.47 304.283 1201.89 304.283C1193.1 304.283 1186.82 300.371 1183.02 292.535L1099.19 123.721C1096.6 118.502 1096.2 113.171 1098 107.744C1099.79 102.121 1103.28 98.0002 1108.48 95.388C1113.66 92.7784 1119.05 92.4787 1124.64 94.4835C1130.03 96.2961 1134.02 99.8128 1136.62 105.033L1201.89 235.863L1266.86 105.033Z" fill="#369643"/>
<path d="M1353.09 304.283C1347.3 304.283 1342.31 302.278 1338.12 298.253C1334.12 294.037 1332.13 289.018 1332.13 283.186V114.381C1332.13 108.556 1334.12 103.528 1338.12 99.3025C1342.31 95.2872 1347.3 93.2823 1353.09 93.2823C1358.87 93.2823 1363.87 95.2872 1368.05 99.3025C1372.05 103.528 1374.04 108.556 1374.04 114.381V283.186C1374.04 289.018 1372.05 294.037 1368.05 298.253C1363.87 302.278 1358.87 304.283 1353.09 304.283Z" fill="#369643"/>
<path d="M1494.41 262.086C1508.58 262.086 1520.05 260.081 1528.84 256.056C1537.82 252.244 1542.31 247.216 1542.31 240.985V240.079V239.171C1542.11 238.377 1541.81 237.573 1541.41 236.761C1540.61 234.756 1538.81 232.845 1536.02 231.033C1528.24 225.812 1513.66 222.097 1492.31 219.886C1437.82 214.055 1410.57 192.954 1410.57 156.578C1410.57 139.299 1417.35 124.828 1430.93 113.171C1446.1 99.9072 1467.26 93.2823 1494.41 93.2823C1527.14 93.2823 1552.69 101.523 1571.05 117.993C1575.44 121.82 1577.84 126.64 1578.24 132.465C1578.64 138.297 1576.84 143.316 1572.85 147.534C1569.06 151.959 1564.26 154.368 1558.48 154.774C1552.69 155.178 1547.7 153.366 1543.51 149.347C1539.11 145.529 1533.03 142.412 1525.25 139.998C1516.06 136.985 1505.78 135.479 1494.41 135.479C1481.63 135.479 1471.45 137.389 1463.86 141.209C1456.28 145.027 1452.49 150.15 1452.49 156.578V157.487V158.385C1452.68 159.397 1452.89 160.304 1453.09 161.098C1454.08 163.318 1455.78 165.323 1458.18 167.129C1464.96 172.356 1477.74 175.873 1496.5 177.679L1498.89 177.983L1501.59 178.284L1507.28 179.19C1511.87 179.795 1516.26 180.496 1520.45 181.3C1531.63 183.511 1541.31 186.528 1549.49 190.345C1572.65 201 1584.22 217.875 1584.22 240.985C1584.22 257.86 1577.54 272.028 1564.16 283.486C1548.2 297.355 1524.94 304.283 1494.41 304.283C1458.87 304.283 1431.43 295.946 1412.07 279.271C1407.67 275.451 1405.18 270.726 1404.58 265.1C1404.18 259.277 1405.88 254.145 1409.67 249.73C1413.46 245.306 1418.25 242.792 1424.04 242.187C1429.63 241.789 1434.62 243.501 1439.01 247.311C1443.8 251.338 1450.59 254.655 1459.38 257.263C1469.75 260.48 1481.43 262.086 1494.41 262.086" fill="#369643"/>
<path d="M1602.19 198.78C1602.19 169.643 1612.47 144.821 1633.03 124.325C1653.39 103.633 1678.04 93.2823 1706.98 93.2823C1740.91 93.2823 1768.36 106.741 1789.32 133.673C1792.91 138.297 1794.41 143.421 1793.81 149.045C1793.01 154.878 1790.31 159.596 1785.72 163.214C1781.13 166.828 1776.04 168.237 1770.45 167.433C1764.67 166.828 1759.98 164.216 1756.38 159.596C1743.81 143.524 1727.34 135.479 1706.98 135.479C1689.62 135.479 1674.84 141.709 1662.67 154.169C1650.29 166.43 1644.1 181.3 1644.1 198.78C1644.1 216.265 1650.29 231.135 1662.67 243.396C1674.84 255.856 1689.62 262.086 1706.98 262.086C1727.34 262.086 1743.81 254.05 1756.38 237.969C1759.98 233.349 1764.67 230.74 1770.45 230.132C1776.04 229.329 1781.13 230.74 1785.72 234.35C1790.31 237.969 1793.01 242.697 1793.81 248.519C1794.41 254.145 1792.91 259.277 1789.32 263.892C1768.36 290.824 1740.91 304.283 1706.98 304.283C1678.04 304.283 1653.39 293.941 1633.03 273.24C1612.47 252.738 1602.19 227.922 1602.19 198.78" fill="#369643"/>
<path d="M1914.47 135.479C1897.1 135.479 1882.33 141.709 1870.16 154.169C1857.78 166.43 1851.59 181.3 1851.59 198.78C1851.59 216.265 1857.78 231.135 1870.16 243.396C1882.33 255.856 1897.1 262.086 1914.47 262.086C1931.83 262.086 1946.6 255.856 1958.78 243.396C1971.15 231.135 1977.35 216.265 1977.35 198.78C1977.35 181.3 1971.15 166.43 1958.78 154.169C1946.6 141.709 1931.83 135.479 1914.47 135.479ZM1914.47 304.283C1885.52 304.283 1860.87 293.941 1840.51 273.24C1819.96 252.738 1809.68 227.922 1809.68 198.78C1809.68 169.643 1819.96 144.821 1840.51 124.325C1860.87 103.633 1885.52 93.2823 1914.47 93.2823C1943.41 93.2823 1968.06 103.633 1988.42 124.325C2008.98 144.821 2019.26 169.643 2019.26 198.78C2019.26 227.922 2008.98 252.738 1988.42 273.24C1968.06 293.941 1943.41 304.283 1914.47 304.283Z" fill="#369643"/>
<path d="M2049.2 114.381C2049.2 104.537 2053.79 97.9019 2062.97 94.4835C2072.15 91.2669 2079.84 93.2822 2086.03 100.514L2192.91 226.21V114.381C2192.91 108.556 2194.91 103.633 2198.9 99.6061C2203.1 95.388 2208.08 93.2823 2213.87 93.2823C2219.66 93.2823 2224.65 95.388 2228.84 99.6061C2232.84 103.633 2234.83 108.556 2234.83 114.381V283.186C2234.83 293.035 2230.24 299.663 2221.06 303.082C2218.86 303.888 2216.46 304.283 2213.87 304.283C2207.48 304.283 2202.2 301.778 2198.01 296.75L2091.12 171.354V283.186C2091.12 289.018 2089.12 293.941 2085.13 297.958C2080.94 302.177 2075.94 304.283 2070.16 304.283C2064.37 304.283 2059.38 302.177 2055.19 297.958C2051.19 293.941 2049.2 289.018 2049.2 283.186V114.381Z" fill="#369643"/>
<path d="M249.5 58.0596C288.355 58.0596 319.969 89.8875 319.969 129.007C319.969 168.126 288.355 199.952 249.5 199.952C210.644 199.952 179.033 168.126 179.033 129.007C179.033 89.8875 210.644 58.0596 249.5 58.0596V58.0596ZM249.5 216.095C297.196 216.095 336.001 177.028 336.001 129.007C336.001 80.9853 297.196 41.9179 249.5 41.9179C201.805 41.9179 163 80.9853 163 129.007C163 177.028 201.805 216.095 249.5 216.095Z" fill="#369643" stroke="#369643"/>
<path d="M249.501 172.562C276.888 172.562 299.088 150.211 299.088 122.637C299.088 119.032 298.69 115.523 297.968 112.134C295.134 113.059 291.973 113.571 288.488 113.571C265.466 113.571 256.69 91.394 262.073 74.3957C258.051 73.336 253.853 72.7136 249.501 72.7136C222.115 72.7136 199.915 95.0661 199.915 122.637C199.915 150.211 222.115 172.562 249.501 172.562" fill="#369643"/>
<path d="M249.501 172.562C276.888 172.562 299.088 150.211 299.088 122.637C299.088 119.032 298.69 115.523 297.968 112.134C295.134 113.059 291.973 113.571 288.488 113.571C265.466 113.571 256.69 91.394 262.073 74.3957C258.051 73.336 253.853 72.7136 249.501 72.7136C222.115 72.7136 199.915 95.0661 199.915 122.637C199.915 150.211 222.115 172.562 249.501 172.562" stroke="#369643"/>
<path d="M452.401 168.061C445.377 169.643 417.206 168.397 358.218 159.836C352.008 158.952 345.873 161.531 342.159 166.598C338.468 171.64 337.829 178.287 340.493 183.942C352.027 208.424 377.069 271.328 360.544 326.57C352.324 354.042 339.197 370.787 322.582 374.996C306.495 379.074 291.502 370.805 287.133 366.404C273.028 352.207 260.709 350.25 249.499 350.25C238.825 350.25 226.006 352.17 211.869 366.407C207.501 370.802 192.508 379.067 176.422 374.996C159.803 370.788 146.674 354.042 138.453 326.57C121.926 271.323 146.972 208.422 158.508 183.942C161.173 178.285 160.532 171.639 156.838 166.598C153.614 162.195 148.546 159.661 143.21 159.661C142.405 159.661 141.593 159.72 140.782 159.836C81.7966 168.393 53.6173 169.645 46.6001 168.061C38.3427 153.879 18.298 70.9086 21.0005 54.2066C36.0865 48.8769 120.826 21.1417 249.499 21.1417C378.185 21.1417 462.913 48.8769 477.997 54.2066C480.704 70.9086 460.658 153.879 452.401 168.061ZM493.414 49.7594C492.098 43.5188 488.748 41.0176 486.168 40.0174C485.266 39.6681 394.089 4.99998 249.499 4.99998C104.924 4.99998 13.7355 39.6681 12.8319 40.0174C10.2535 41.0176 6.90097 43.5175 5.58557 49.7594C0.923245 71.8777 25.3205 169.779 35.6137 180.142C39.2715 183.823 45.3933 189.982 143.069 175.815C143.214 175.791 143.61 175.734 143.936 176.178C144.23 176.581 144.089 176.882 144.022 177.023C128.704 209.529 105.618 272.784 123.103 331.226C135.654 373.178 156.899 386.697 172.51 390.651C194.608 396.246 215.33 385.75 223.206 377.819C233.678 367.275 241.935 366.393 249.499 366.393C257.061 366.393 265.322 367.275 275.796 377.819C282.129 384.195 296.762 392.227 313.734 392.226C317.878 392.226 322.159 391.749 326.492 390.651C342.102 386.697 363.347 373.178 375.896 331.226C393.378 272.792 370.296 209.532 354.98 177.023C354.911 176.88 354.769 176.581 355.064 176.178C355.39 175.736 355.785 175.793 355.931 175.815C453.613 189.986 459.728 183.821 463.386 180.14C473.679 169.779 498.077 71.8777 493.414 49.7594" fill="#369643"/>
<path d="M493.414 49.7594C492.098 43.5188 488.748 41.0176 486.168 40.0174C485.266 39.6681 394.089 4.99998 249.499 4.99998C104.924 4.99998 13.7355 39.6681 12.8319 40.0174C10.2535 41.0176 6.90097 43.5175 5.58557 49.7594C0.923245 71.8777 25.3205 169.779 35.6137 180.142C39.2715 183.823 45.3933 189.982 143.069 175.815C143.214 175.791 143.61 175.734 143.936 176.178C144.23 176.581 144.089 176.882 144.022 177.023C128.704 209.529 105.618 272.784 123.103 331.226C135.654 373.178 156.899 386.697 172.51 390.651C194.608 396.246 215.33 385.75 223.206 377.819C233.678 367.275 241.935 366.393 249.499 366.393C257.061 366.393 265.322 367.275 275.796 377.819C282.129 384.195 296.762 392.227 313.734 392.226C317.878 392.226 322.159 391.749 326.492 390.651C342.102 386.697 363.347 373.178 375.896 331.226C393.378 272.792 370.296 209.532 354.98 177.023C354.911 176.88 354.769 176.581 355.064 176.178C355.39 175.736 355.785 175.793 355.931 175.815C453.613 189.986 459.728 183.821 463.386 180.14C473.679 169.779 498.077 71.8777 493.414 49.7594M452.401 168.061C445.377 169.643 417.206 168.397 358.218 159.836C352.008 158.952 345.873 161.531 342.159 166.598C338.468 171.64 337.829 178.287 340.493 183.942C352.027 208.424 377.069 271.328 360.544 326.57C352.324 354.042 339.197 370.787 322.582 374.996C306.495 379.074 291.502 370.805 287.133 366.404C273.028 352.207 260.709 350.25 249.499 350.25C238.825 350.25 226.006 352.17 211.869 366.407C207.501 370.802 192.508 379.067 176.422 374.996C159.803 370.788 146.674 354.042 138.453 326.57C121.926 271.323 146.972 208.422 158.508 183.942C161.173 178.285 160.532 171.639 156.838 166.598C153.614 162.195 148.546 159.661 143.21 159.661C142.405 159.661 141.593 159.72 140.782 159.836C81.7966 168.393 53.6173 169.645 46.6001 168.061C38.3427 153.879 18.298 70.9086 21.0005 54.2066C36.0865 48.8769 120.826 21.1417 249.499 21.1417C378.185 21.1417 462.913 48.8769 477.997 54.2066C480.704 70.9086 460.658 153.879 452.401 168.061Z" stroke="#369643" stroke-width="10"/>
<path d="M304.456 252.73C294.081 254.136 286.92 251.762 278.628 249.019C270.758 246.414 261.836 243.464 249.501 243.464C237.168 243.464 228.248 246.414 220.378 249.019C212.086 251.761 204.934 254.131 194.547 252.73C176.401 250.284 166.341 230.913 166.243 230.718L151.935 238.001C152.488 239.109 165.792 265.14 192.42 268.729C195.341 269.124 198.072 269.297 200.651 269.297C210.443 269.297 218.012 266.792 225.383 264.353C232.764 261.912 239.736 259.606 249.501 259.606C259.269 259.606 266.242 261.912 273.623 264.353C280.995 266.792 288.561 269.297 298.353 269.297C300.93 269.297 303.663 269.123 306.586 268.729C333.213 265.14 346.518 239.109 347.072 238.004L332.765 230.718C332.665 230.913 322.603 250.284 304.456 252.73Z" fill="#369643" stroke="#369643"/>
</svg>
